<svg xmlns="http://www.w3.org/2000/svg" viewBox="0 0 325 70" width="325" height="70">
  <defs><title>ノースマン</title><style>.w{fill:#232742;}</style></defs>
  <path class="w" d="M53.01,.09s-11.89,32.93-19.1,49.24c-2.67,6.03-13.41,11.46-17.79,11.46H4.24S.27,70,.27,70H16.68c6-.27,11.12-.6,13.89-1.2,3.95-.86,11.32-4.07,14.57-6.37,3.36-2.37,8.06-6.33,9.58-9.94L77.22,.08h-24.2Z"/>
  <polygon class="w" points="104.89 39.18 109.01 29.47 73.01 29.47 68.7 39.18 104.89 39.18"/>
  <path class="w" d="M110.36,.09l-4.53,10.49h39.88c-1.54,7.36-5.78,17.73-10.49,24.45-4.6,6.56-18.55,25.76-37.11,25.76h-13.79s-3.89,9.2-3.89,9.2h18.61c13.93,0,36.09-6.4,48.46-18.55l6.66,18.55h15.36s-14.9-27.96-14.9-27.96c7.65-10.15,12.66-21.56,18.88-41.94-.13-.21-63.14,0-63.14,0"/>
  <path class="w" d="M199.68,70v-9.19c3.31,.26,9.26-1,13.84-2.25,1.74-.48,4.95-1.84,7.48-3.75,1.91-1.45,6.77-5.32,9.13-8.72,4.06-5.81,6.95-10.52,9.77-16.6C243.85,21.02,251.74,.05,251.74,.05l-67.24,.05-4.49,10.48h43.94c-1.27,4.14-10.53,25.62-15.49,32.75-2.14,3.08-4.77,6.75-8.76,7.55l.24-21.6h-22.67s-4.28,40.72-4.28,40.72h26.68Z"/>
  <polygon class="w" points="291.15 10.58 295.61 .09 260.72 .09 256.26 10.58 291.15 10.58"/>
  <path class="w" d="M258.19,60.8h-23.61s-3.89,9.2-3.89,9.2h39.06c4.76,0,10.75-.83,14.79-1.52,4.44-.76,7.98-2.84,11.59-5.65,3.44-2.68,7.1-8.37,9.08-12.18l19.52-40.41h-25.67s-15.45,36.96-15.45,36.96c-4.15,9.43-14.72,13.6-25.42,13.6"/>
</svg>