<svg xmlns="http://www.w3.org/2000/svg" viewBox="0 0 180 100">
  <defs><title>03</title><style>rect {fill: #232742;}</style></defs>
  <rect y="60" width="20" height="20"/>
  <rect x="60" y="60" width="20" height="20"/>
  <rect y="40" width="20" height="20"/>
  <rect x="60" y="40" width="20" height="20"/>
  <rect y="20" width="20" height="20"/>
  <rect x="60" y="20" width="20" height="20"/>
  <rect x="20" y="80" width="20" height="20"/>
  <rect x="40" y="80" width="20" height="20"/>
  <rect x="20" width="20" height="20"/>
  <rect x="40" width="20" height="20"/>
  <rect x="100" y="60" width="20" height="20"/>
  <rect x="160" y="60" width="20" height="20"/>
  <rect x="140" y="40" width="20" height="20"/>
  <rect x="100" y="20" width="20" height="20"/>
  <rect x="160" y="20" width="20" height="20"/>
  <rect x="120" y="80" width="20" height="20"/>
  <rect x="140" y="80" width="20" height="20"/>
  <rect x="120" width="20" height="20"/>
  <rect x="140" width="20" height="20"/>
</svg>