    <svg  height="12" width="28"  xmlns="http://www.w3.org/2000/svg">
      <g>
        <g>
          <rect y="6" fill="#0077c3" width="1.05" height="1.05" />
          <rect x="1" y="7" fill="#0077c3" width="1.05" height="1.05" />
          <rect x="2" y="6" fill="#0077c3" width="1.05" height="1.05" />
          <rect x="3" y="5" fill="#0077c3" width="1.05" height="1.05" />
          <rect x="4" y="4" fill="#0077c3" width="1.05" height="1.05" />
          <rect x="5" y="3" fill="#0077c3" width="1.05" height="1.05" />
          <rect x="6" y="2" fill="#0077c3" width="1.05" height="1.05" />
          <rect x="7" y="1" fill="#0077c3" width="1.05" height="1.05" />
          <rect x="8" fill="#0077c3" width="1.05" height="1.05" />
          <rect x="9" y="1" fill="#0077c3" width="1.05" height="1.05" />
          <rect x="10" y="2" fill="#0077c3" width="1.05" height="1.05" />
          <rect x="11" y="3" fill="#0077c3" width="1.05" height="1.05" />
          <rect x="12" y="4" fill="#0077c3" width="1.05" height="1.05" />
          <rect x="13" y="5" fill="#0077c3" width="1.05" height="1.05" />
          <rect x="14" y="6" fill="#0077c3" width="1.05" height="1.05" />
          <rect x="15" y="7" fill="#0077c3" width="1.05" height="1.05" />
          <rect x="16" y="6" fill="#0077c3" width="1.05" height="1.05" />
          <rect x="17" y="5" fill="#0077c3" width="1.05" height="1.05" />
          <rect x="18" y="4" fill="#0077c3" width="1.05" height="1.05" />
          <rect x="19" y="3" fill="#0077c3" width="1.05" height="1.05" />
          <rect x="20" y="2" fill="#0077c3" width="1.05" height="1.05" />
          <rect x="21" y="1" fill="#0077c3" width="1.05" height="1.05" />
          <rect x="22" fill="#0077c3" width="1.05" height="1.05" />
          <rect x="23" y="1" fill="#0077c3" width="1.05" height="1.05" />
          <rect x="24" y="2" fill="#0077c3" width="1.05" height="1.05" />
          <rect x="25" y="3" fill="#0077c3" width="1.05" height="1.05" />
          <rect x="26" y="4" fill="#0077c3" width="1.05" height="1.05" />
          <rect x="27" y="5" fill="#0077c3" width="1.05" height="1.05" />
        </g>
        <g>
          <rect y="9" fill="#0077c3" width="1.05" height="1.05" />
          <rect x="1" y="10" fill="#0077c3" width="1.05" height="1.05" />
          <rect x="2" y="9" fill="#0077c3" width="1.05" height="1.05" />
          <rect x="3" y="8" fill="#0077c3" width="1.05" height="1.05" />
          <rect x="4" y="7" fill="#0077c3" width="1.05" height="1.05" />
          <rect x="5" y="6" fill="#0077c3" width="1.05" height="1.05" />
          <rect x="6" y="5" fill="#0077c3" width="1.05" height="1.05" />
          <rect x="7" y="4" fill="#0077c3" width="1.05" height="1.05" />
          <rect x="8" y="3" fill="#0077c3" width="1.05" height="1.05" />
          <rect x="9" y="4" fill="#0077c3" width="1.05" height="1.05" />
          <rect x="10" y="5" fill="#0077c3" width="1.05" height="1.05" />
          <rect x="11" y="6" fill="#0077c3" width="1.05" height="1.05" />
          <rect x="12" y="7" fill="#0077c3" width="1.05" height="1.05" />
          <rect x="13" y="8" fill="#0077c3" width="1.05" height="1.05" />
          <rect x="14" y="9" fill="#0077c3" width="1.05" height="1.05" />
          <rect x="15" y="10" fill="#0077c3" width="1.05" height="1.05" />
          <rect x="16" y="9" fill="#0077c3" width="1.05" height="1.05" />
          <rect x="17" y="8" fill="#0077c3" width="1.05" height="1.05" />
          <rect x="18" y="7" fill="#0077c3" width="1.05" height="1.05" />
          <rect x="19" y="6" fill="#0077c3" width="1.05" height="1.05" />
          <rect x="20" y="5" fill="#0077c3" width="1.05" height="1.05" />
          <rect x="21" y="4" fill="#0077c3" width="1.05" height="1.05" />
          <rect x="22" y="3" fill="#0077c3" width="1.05" height="1.05" />
          <rect x="23" y="4" fill="#0077c3" width="1.05" height="1.05" />
          <rect x="24" y="5" fill="#0077c3" width="1.05" height="1.05" />
          <rect x="25" y="6" fill="#0077c3" width="1.05" height="1.05" />
          <rect x="26" y="7" fill="#0077c3" width="1.05" height="1.05" />
          <rect x="27" y="8" fill="#0077c3" width="1.05" height="1.05" />
        </g>
        <g>
          <rect y="10" fill="#0077c3" width="1.05" height="1.05" />
          <rect x="1" y="11" fill="#0077c3" width="1.05" height="1.05" />
          <rect x="2" y="10" fill="#0077c3" width="1.05" height="1.05" />
          <rect x="3" y="9" fill="#0077c3" width="1.05" height="1.05" />
          <rect x="4" y="8" fill="#0077c3" width="1.05" height="1.05" />
          <rect x="5" y="7" fill="#0077c3" width="1.05" height="1.05" />
          <rect x="6" y="6" fill="#0077c3" width="1.05" height="1.05" />
          <rect x="7" y="5" fill="#0077c3" width="1.05" height="1.05" />
          <rect x="8" y="4" fill="#0077c3" width="1.05" height="1.05" />
          <rect x="9" y="5" fill="#0077c3" width="1.05" height="1.05" />
          <rect x="10" y="6" fill="#0077c3" width="1.05" height="1.05" />
          <rect x="11" y="7" fill="#0077c3" width="1.05" height="1.05" />
          <rect x="12" y="8" fill="#0077c3" width="1.05" height="1.05" />
          <rect x="13" y="9" fill="#0077c3" width="1.05" height="1.05" />
          <rect x="14" y="10" fill="#0077c3" width="1.05" height="1.05" />
          <rect x="15" y="11" fill="#0077c3" width="1.05" height="1.05" />
          <rect x="16" y="10" fill="#0077c3" width="1.05" height="1.05" />
          <rect x="17" y="9" fill="#0077c3" width="1.05" height="1.05" />
          <rect x="18" y="8" fill="#0077c3" width="1.05" height="1.05" />
          <rect x="19" y="7" fill="#0077c3" width="1.05" height="1.05" />
          <rect x="20" y="6" fill="#0077c3" width="1.05" height="1.05" />
          <rect x="21" y="5" fill="#0077c3" width="1.05" height="1.05" />
          <rect x="22" y="4" fill="#0077c3" width="1.05" height="1.05" />
          <rect x="23" y="5" fill="#0077c3" width="1.05" height="1.05" />
          <rect x="24" y="6" fill="#0077c3" width="1.05" height="1.05" />
          <rect x="25" y="7" fill="#0077c3" width="1.05" height="1.05" />
          <rect x="26" y="8" fill="#0077c3" width="1.05" height="1.05" />
          <rect x="27" y="9" fill="#0077c3" width="1.05" height="1.05" />
        </g>
      </g>       
    </svg>
